<?xml version="1.0" encoding="UTF-8"?>
<svg id="_Слой_1" data-name="Слой 1" xmlns="http://www.w3.org/2000/svg" viewBox="0 0 4440 1440">
  <defs>
    <style>
      .cls-1 {
        letter-spacing: 0em;
      }

      .cls-2 {
        stroke-width: 0px;
      }

      .cls-2, .cls-3 {
        fill: #fff;
      }

      .cls-4 {
        letter-spacing: 0em;
      }

      .cls-5 {
        letter-spacing: 0em;
      }

      .cls-3 {
        font-family: AcuminConcept-WideSemibold, 'Acumin Variable Concept';
        font-size: 799.91px;
        font-variation-settings: 'wght' 600, 'wdth' 115, 'slnt' 0;
        font-weight: 600;
      }

      .cls-6 {
        letter-spacing: -.1em;
      }

      .cls-7 {
        letter-spacing: 0em;
      }
    </style>
  </defs>
  <text class="cls-3" transform="translate(1732.66 1089.43)"><tspan class="cls-6" x="0" y="0">T</tspan><tspan class="cls-4" x="456.75" y="0">e</tspan><tspan class="cls-1" x="967.89" y="0">s</tspan><tspan class="cls-7" x="1428.62" y="0">t</tspan><tspan class="cls-5" x="1753.38" y="0">i</tspan><tspan x="1979.75" y="0">Q</tspan></text>
  <path class="cls-2" d="M735.69,120.61L52.5,511.94c-15.21,8.71-15.51,30.54-.54,39.66l240.78,146.81c6.9,4.2,11.09,11.71,11.04,19.79l-1.6,309.25c-.04,8.24,4.32,15.88,11.45,20.03l415.79,242.07c7.24,4.22,16.21,4.17,23.41-.13l419.64-250.63c6.96-4.16,11.23-11.67,11.23-19.78v-306.02c0-8.08,4.23-15.57,11.15-19.73l235.49-141.88c14.99-9.03,14.83-30.83-.29-39.64L758.74,120.7c-7.12-4.15-15.9-4.18-23.05-.08ZM1158.17,709.3l-405.14,243.74c-7.08,4.26-15.89,4.4-23.11.38l-126.06-70.36c-7.29-4.07-11.81-11.77-11.81-20.12v-115.8c0-17.61,18.95-28.71,34.31-20.09l96.81,54.31c7.1,3.99,15.78,3.92,22.83-.16l388.74-225.47c15.36-8.91,34.6,2.17,34.6,19.93v113.9c0,8.08-4.24,15.57-11.16,19.74Z"/>
</svg>