<?xml version="1.0" encoding="UTF-8"?>
<svg id="_Слой_1" data-name="Слой 1" xmlns="http://www.w3.org/2000/svg" viewBox="0 0 4440 1440">
  <defs>
    <style>
      .cls-1 {
        fill: #fff;
        stroke-width: 0px;
      }
    </style>
  </defs>
  <path class="cls-1" d="M1628.67,610.53h-187.86v-88.17h484.6v88.17h-187.35v431.65h-109.39v-431.65Z"/>
  <path class="cls-1" d="M2413.94,815.54h-297.07v138.17h329.45l-13.04,88.46h-425.59v-519.81h422.13v88.46h-312.96v116.25h297.07v88.46Z"/>
  <path class="cls-1" d="M2612.31,887.91c16.18,50.02,54.88,83.77,146.33,83.77s116.14-29.48,116.14-67.8c0-40.74-25.46-64.57-142.87-84.43-172.63-29.45-206.92-84.96-206.92-155.02,0-99.82,95.7-152.59,215.46-152.59,175.4,0,221.04,90.68,226.93,148.54h-109.61c-8.38-28.83-27.22-67.3-120.64-67.3-64.81,0-100.99,21.18-100.99,60.74,0,34.05,21.34,52.94,125.52,71.19,194.31,34.3,225,93.48,225,167.74,0,87.74-69.19,159.94-237.76,159.94-157.01,0-230.32-70.52-246.43-164.79h109.83Z"/>
  <path class="cls-1" d="M3214.67,610.53h-187.86v-88.17h484.6v88.17h-187.35v431.65h-109.39v-431.65Z"/>
  <path class="cls-1" d="M3702.87,522.37v519.81h-109.17v-519.81h109.17Z"/>
  <path class="cls-1" d="M4405.35,1079.95l-127.07-88.38c61.61-50.96,93.36-128.16,93.36-211.02,0-142.55-100.3-269.22-276.81-269.22s-280.05,126.15-280.05,269.51c0,151.98,102,272.38,275.41,272.38,35.07,0,66.97-4.63,95.66-13.12l160.59,111.15,58.92-71.3ZM3929.99,779.15c0-94.75,53.31-181.2,160.94-181.2,113.22,0,165.5,86.95,165.5,184.07s-48.67,184.58-160.57,184.58-165.87-84.81-165.87-187.45Z"/>
  <path class="cls-1" d="M674.26,150.8L45.67,510.85c-13.99,8.01-14.27,28.1-.5,36.49l221.53,135.08c6.34,3.87,10.2,10.78,10.16,18.21l-1.47,284.53c-.04,7.59,3.98,14.61,10.53,18.43l382.56,222.72c6.67,3.88,14.91,3.83,21.53-.12l386.1-230.6c6.41-3.83,10.33-10.74,10.33-18.2v-281.56c0-7.43,3.89-14.32,10.26-18.16l216.67-130.54c13.8-8.31,13.65-28.37-.27-36.47L695.46,150.88c-6.55-3.81-14.63-3.84-21.21-.08ZM1062.97,692.44l-372.76,224.26c-6.51,3.92-14.62,4.05-21.26.35l-115.99-64.74c-6.71-3.74-10.87-10.83-10.87-18.51v-106.54c0-16.2,17.44-26.41,31.57-18.49l89.07,49.97c6.54,3.67,14.52,3.61,21.01-.15l357.66-207.45c14.13-8.2,31.83,2,31.83,18.34v104.8c0,7.44-3.9,14.33-10.27,18.16Z"/>
</svg>